<svg width="14" height="14" viewBox="0 0 14 14" fill="none" xmlns="http://www.w3.org/2000/svg">
<path d="M7.45933 10.2555C7.52051 10.3165 7.56906 10.389 7.60218 10.4687C7.6353 10.5485 7.65235 10.634 7.65235 10.7204C7.65235 10.8068 7.6353 10.8923 7.60218 10.972C7.56906 11.0518 7.52051 11.1243 7.45933 11.1852L7.13449 11.5101C6.51894 12.1256 5.68407 12.4714 4.81355 12.4714C3.94303 12.4714 3.10816 12.1256 2.49261 11.5101C1.87706 10.8945 1.53125 10.0597 1.53125 9.18913C1.53125 8.31861 1.87706 7.48375 2.49261 6.8682L3.81168 5.54968C4.40311 4.95678 5.19887 4.61246 6.03594 4.58725C6.87301 4.56203 7.68805 4.85783 8.3141 5.41406C8.37873 5.47151 8.43142 5.54113 8.46915 5.61895C8.50688 5.69676 8.52891 5.78124 8.53399 5.86757C8.53906 5.9539 8.52709 6.04039 8.49874 6.12209C8.4704 6.20379 8.42624 6.27911 8.36879 6.34374C8.31133 6.40838 8.24171 6.46106 8.1639 6.49879C8.08608 6.53652 8.0016 6.55855 7.91527 6.56363C7.82894 6.56871 7.74245 6.55673 7.66075 6.52839C7.57905 6.50004 7.50373 6.45588 7.4391 6.39843C7.06368 6.06502 6.57506 5.88764 6.07318 5.90258C5.5713 5.91753 5.09409 6.12366 4.73918 6.47882L3.42121 7.7957C3.05193 8.16497 2.84448 8.66581 2.84448 9.18804C2.84448 9.71027 3.05193 10.2111 3.42121 10.5804C3.79048 10.9497 4.29132 11.1571 4.81355 11.1571C5.33578 11.1571 5.83662 10.9497 6.20589 10.5804L6.53074 10.2555C6.59169 10.1945 6.66406 10.1461 6.74373 10.1131C6.8234 10.0801 6.90879 10.0631 6.99504 10.0631C7.08128 10.0631 7.16667 10.0801 7.24634 10.1131C7.32601 10.1461 7.39838 10.1945 7.45933 10.2555ZM11.5106 2.48992C10.8945 1.87531 10.0599 1.53015 9.18964 1.53015C8.31944 1.53015 7.48476 1.87531 6.86871 2.48992L6.54386 2.81476C6.42058 2.93804 6.35132 3.10525 6.35132 3.2796C6.35132 3.45395 6.42058 3.62116 6.54386 3.74445C6.66715 3.86773 6.83436 3.93699 7.00871 3.93699C7.18306 3.93699 7.35027 3.86773 7.47355 3.74445L7.7984 3.4196C8.16767 3.05033 8.66851 2.84288 9.19074 2.84288C9.71297 2.84288 10.2138 3.05033 10.5831 3.4196C10.9524 3.78888 11.1598 4.28972 11.1598 4.81195C11.1598 5.33418 10.9524 5.83502 10.5831 6.20429L9.26457 7.52335C8.90934 7.87837 8.43187 8.0842 7.92986 8.09874C7.42786 8.11328 6.93927 7.93542 6.5641 7.60156C6.49946 7.5441 6.42414 7.49994 6.34244 7.4716C6.26074 7.44325 6.17426 7.43128 6.08793 7.43636C6.0016 7.44143 5.91711 7.46347 5.8393 7.50119C5.76149 7.53892 5.69186 7.59161 5.63441 7.65624C5.57696 7.72088 5.5328 7.7962 5.50445 7.8779C5.47611 7.9596 5.46413 8.04608 5.46921 8.13241C5.47429 8.21874 5.49632 8.30323 5.53405 8.38104C5.57178 8.45886 5.62446 8.52848 5.6891 8.58593C6.31471 9.14203 7.1292 9.43802 7.96588 9.41331C8.80256 9.38861 9.59816 9.04508 10.1899 8.45304L11.5089 7.13453C12.1243 6.51862 12.47 5.68371 12.4703 4.81311C12.4707 3.9425 12.1255 3.10735 11.5106 2.49101V2.48992Z" fill="white"/>
</svg>
