<svg width="19" height="19" viewBox="0 0 19 19" fill="none" xmlns="http://www.w3.org/2000/svg">
<path d="M6.1737 1.58337H12.8237C15.357 1.58337 17.4154 3.64171 17.4154 6.17504V12.825C17.4154 14.0428 16.9316 15.2107 16.0705 16.0718C15.2094 16.9329 14.0415 17.4167 12.8237 17.4167H6.1737C3.64036 17.4167 1.58203 15.3584 1.58203 12.825V6.17504C1.58203 4.95725 2.06579 3.78935 2.9269 2.92824C3.788 2.06714 4.95591 1.58337 6.1737 1.58337ZM6.01536 3.16671C5.2595 3.16671 4.53459 3.46697 4.00011 4.00145C3.46563 4.53593 3.16536 5.26084 3.16536 6.01671V12.9834C3.16536 14.5588 4.43995 15.8334 6.01536 15.8334H12.982C13.7379 15.8334 14.4628 15.5331 14.9973 14.9986C15.5318 14.4641 15.832 13.7392 15.832 12.9834V6.01671C15.832 4.44129 14.5574 3.16671 12.982 3.16671H6.01536ZM13.6549 4.35421C13.9174 4.35421 14.1691 4.45847 14.3547 4.64405C14.5403 4.82963 14.6445 5.08134 14.6445 5.34379C14.6445 5.60624 14.5403 5.85795 14.3547 6.04353C14.1691 6.22911 13.9174 6.33337 13.6549 6.33337C13.3925 6.33337 13.1408 6.22911 12.9552 6.04353C12.7696 5.85795 12.6654 5.60624 12.6654 5.34379C12.6654 5.08134 12.7696 4.82963 12.9552 4.64405C13.1408 4.45847 13.3925 4.35421 13.6549 4.35421ZM9.4987 5.54171C10.5485 5.54171 11.5553 5.95874 12.2977 6.70108C13.04 7.44341 13.457 8.45022 13.457 9.50004C13.457 10.5499 13.04 11.5567 12.2977 12.299C11.5553 13.0413 10.5485 13.4584 9.4987 13.4584C8.44888 13.4584 7.44206 13.0413 6.69973 12.299C5.9574 11.5567 5.54036 10.5499 5.54036 9.50004C5.54036 8.45022 5.9574 7.44341 6.69973 6.70108C7.44206 5.95874 8.44888 5.54171 9.4987 5.54171ZM9.4987 7.12504C8.86881 7.12504 8.26472 7.37526 7.81932 7.82066C7.37392 8.26606 7.1237 8.87015 7.1237 9.50004C7.1237 10.1299 7.37392 10.734 7.81932 11.1794C8.26472 11.6248 8.86881 11.875 9.4987 11.875C10.1286 11.875 10.7327 11.6248 11.1781 11.1794C11.6235 10.734 11.8737 10.1299 11.8737 9.50004C11.8737 8.87015 11.6235 8.26606 11.1781 7.82066C10.7327 7.37526 10.1286 7.12504 9.4987 7.12504Z" fill="#777777"/>
</svg>
