<svg width="19" height="19" viewBox="0 0 19 19" fill="none" xmlns="http://www.w3.org/2000/svg">
<path d="M14.25 6.92712C14.25 -0.197876 4.75 -0.197876 4.75 6.92712V8.11462H3.46117C2.99963 8.11462 2.80963 8.70758 3.18567 8.97596L4.75 10.0938C4.48638 11.0177 3.40417 13.023 1.1875 13.6563C1.45113 14.0521 2.21667 14.8438 3.16667 14.8438L3.95833 16.0313L5.9375 15.6355C6.59696 16.1635 8.23333 17.2188 9.5 17.2188C10.7667 17.2188 12.403 16.1635 13.0625 15.6355L15.0417 16.0313L15.8333 14.8438C16.7833 14.8438 17.5489 14.0521 17.8125 13.6563C15.5958 13.023 14.5136 11.0177 14.25 10.0938L15.8143 8.97596C16.1904 8.70758 16.0004 8.11462 15.5388 8.11462H14.25V6.92712Z" stroke="#777777" stroke-width="1.5" stroke-linecap="round" stroke-linejoin="round"/>
</svg>
