<svg width="19" height="19" viewBox="0 0 19 19" fill="none" xmlns="http://www.w3.org/2000/svg">
<path d="M15.0794 3.88705C14.3536 3.15391 13.4891 2.57262 12.5363 2.17709C11.5835 1.78156 10.5615 1.57971 9.52984 1.5833C5.20734 1.5833 1.68443 5.10622 1.68443 9.42871C1.68443 10.8141 2.04859 12.16 2.72943 13.3475L1.62109 17.4166L5.77734 16.3241C6.92526 16.9495 8.21568 17.282 9.52984 17.282C13.8523 17.282 17.3753 13.7591 17.3753 9.43663C17.3753 7.33872 16.5598 5.36747 15.0794 3.88705ZM9.52984 15.952C8.35818 15.952 7.21026 15.6354 6.20484 15.0416L5.96734 14.8991L3.49734 15.5483L4.15443 13.1416L3.99609 12.8962C3.34514 11.8567 2.9995 10.6552 2.99859 9.42871C2.99859 5.83455 5.92776 2.90538 9.52193 2.90538C11.2636 2.90538 12.9023 3.58622 14.1294 4.82122C14.737 5.42602 15.2185 6.14541 15.546 6.93768C15.8735 7.72995 16.0405 8.57934 16.0373 9.43663C16.0532 13.0308 13.124 15.952 9.52984 15.952ZM13.1082 11.0754C12.9103 10.9804 11.9444 10.5054 11.7703 10.4341C11.5882 10.3708 11.4615 10.3391 11.3269 10.5291C11.1923 10.727 10.8203 11.1704 10.7094 11.297C10.5986 11.4316 10.4798 11.4475 10.2819 11.3445C10.084 11.2495 9.45068 11.0358 8.70651 10.3708C8.12068 9.8483 7.73276 9.20705 7.61401 9.00913C7.50318 8.81121 7.59818 8.7083 7.70109 8.60538C7.78818 8.5183 7.89901 8.3758 7.99401 8.26496C8.08901 8.15413 8.12859 8.06705 8.19193 7.94038C8.25526 7.8058 8.22359 7.69497 8.17609 7.59997C8.12859 7.50497 7.73276 6.53913 7.57443 6.1433C7.41609 5.7633 7.24984 5.8108 7.13109 5.80288H6.75109C6.61651 5.80288 6.41068 5.85038 6.22859 6.0483C6.05443 6.24622 5.54776 6.72122 5.54776 7.68705C5.54776 8.65288 6.25234 9.58705 6.34734 9.71372C6.44234 9.8483 7.73276 11.8275 9.69609 12.6745C10.1632 12.8804 10.5273 12.9991 10.8123 13.0862C11.2794 13.2366 11.7069 13.2129 12.0473 13.1654C12.4273 13.11 13.2111 12.6904 13.3694 12.2312C13.5357 11.772 13.5357 11.3841 13.4803 11.297C13.4248 11.21 13.3061 11.1704 13.1082 11.0754Z" fill="#777777"/>
</svg>
