<svg width="18" height="18" viewBox="0 0 18 18" fill="none" xmlns="http://www.w3.org/2000/svg">
<g id="la:user">
<path id="Vector" d="M9.00006 2.75735C6.87414 2.75735 5.13976 4.49173 5.13976 6.61765C5.13976 7.94669 5.81807 9.12684 6.84601 9.82335C4.87892 10.6671 3.48535 12.6193 3.48535 14.8897H4.58829C4.58829 12.4467 6.55704 10.4779 9.00006 10.4779C11.4431 10.4779 13.4118 12.4467 13.4118 14.8897H14.5148C14.5148 12.6193 13.1212 10.6676 11.1541 9.8228C11.6787 9.46863 12.1086 8.99129 12.406 8.43253C12.7035 7.87378 12.8595 7.25064 12.8604 6.61765C12.8604 4.49173 11.126 2.75735 9.00006 2.75735ZM9.00006 3.8603C10.5293 3.8603 11.7574 5.08842 11.7574 6.61765C11.7574 8.14688 10.5293 9.375 9.00006 9.375C7.47083 9.375 6.2427 8.14688 6.2427 6.61765C6.2427 5.08842 7.47083 3.8603 9.00006 3.8603Z" fill="#777777" fill-opacity="0.6"/>
</g>
</svg>
